<svg version="1.1" xmlns="http://www.w3.org/2000/svg" viewBox="0 0 59.756 59.756" class="svg-nav-icons">
	<path d="M0.426,25.079c2.546,3.182,7.148,0,7.148,0s0.49,19.094,3.883,21.639s4.031-5.093,4.031-5.093s0.636,9.972,2.97,11.456
			c2.333,1.486,5.516-4.878,5.516-4.878s0.424,7.849,5.516,7.849c0.137,0,0.265-0.041,0.389-0.095
			c0.123,0.054,0.25,0.095,0.388,0.095c5.092,0,5.516-7.849,5.516-7.849s3.183,6.364,5.516,4.878
			c2.333-1.484,2.97-11.456,2.97-11.456s0.637,7.638,4.031,5.093s3.884-21.639,3.884-21.639s4.603,3.182,7.147,0
			c2.317-2.897-5.504-8.978-6.927-10.048c1.776,0.507,2.737,1.033,2.737,1.033c0.717-8.897-8.473-11.388-13.537-12.088
			c-0.93-0.16-1.916-0.25-2.941-0.265c-0.177-0.006-0.281-0.007-0.281-0.007c-3.525,0-6.634,0.931-8.503,2.352
			c-1.87-1.421-4.979-2.352-8.502-2.352c0,0-0.105,0.001-0.282,0.007c-1.024,0.015-2.012,0.105-2.941,0.265
			c-5.065,0.7-14.253,3.192-13.537,12.088c0,0,0.961-0.526,2.738-1.033C5.928,16.101-1.892,22.183,0.426,25.079z M19.896,14.605
			c4.228,0.744,7.794-1.961,9.981-3.385c2.188,1.424,5.754,4.129,9.981,3.385c2.87-0.505,5.378-0.573,7.498-0.428
			c-1.774,0.618-3.446,2.234-7.545,3.477c-7.001,2.122-9.547,0.212-9.547,0.212s-3.322,1.91-10.323-0.212
			c-4.099-1.242-5.771-2.859-7.546-3.477C14.518,14.032,17.027,14.1,19.896,14.605z"/>
</svg>
