<svg version="1.1" xmlns="http://www.w3.org/2000/svg" viewBox="0 0 60.13 60.13" class="svg-nav-icons">
		<path d="M12.292,54.877c1.098,1.479,2.405,4.681,2.405,4.681h10.017v-5.153c2.909,0.17,6.087,1.073,9.556,3.739
			c6.981,5.367,19.919-1.843,19.919-1.843s0.806-1.266-1.957-3.107c-2.765-1.843-9.442,2.072-11.284-3.685
			c-1.843-5.758-9.672-7.369-8.06-13.24c1.612-5.873,3.339-29.591,3.339-29.591c-4.225-2.954-8.431-4.159-12.31-4.363v4.344
			c0,1.093-0.889,1.982-1.981,1.982h-2.35c-1.093,0-1.982-0.889-1.982-1.982V2.822C10.65,4.279,5.831,8.174,5.831,8.174
			s6.908,29.937,6.792,34.082C12.511,46.359,8.658,53.723,12.292,54.877z"/>
		<path d="M19.586,7.6h2.35c0.519,0,0.939-0.421,0.939-0.939V2.288V0.94c0-0.519-0.42-0.94-0.939-0.94h-2.35
			c-0.519,0-0.94,0.42-0.94,0.94v1.684v4.035C18.646,7.179,19.067,7.6,19.586,7.6z"/>

</svg>
