<svg xmlns="http://www.w3.org/2000/svg" viewBox="0 0 76.24 12.22">
	<defs>
		<style type="text/css">
			.cls-1 {
				fill: rgba(0, 0, 0, 0);
				stroke: #e8c36f;
				stroke-width: 0.25;
				stroke-miterlimit: 10;
				stroke-dasharray: 9000;
				stroke-dashoffset: 9000;
				animation: dash 5s ease-in forwards;
			}
	
			@keyframes dash {
				to {
					stroke-dashoffset: 0;
					fill: #e8c36f;
				}
			}
		</style>
	</defs>
	<path class="cls-1" d="M13.82,12.86a1.21,1.21,0,0,1-.25.65l-.06-.07a1.28,1.28,0,0,0,.18-.58q0-.85-1.22-1.37a5,5,0,0,0-2-.41,6.32,6.32,0,0,0-2.3.48L6,12.46a5.83,5.83,0,0,1-2.16.48,3.61,3.61,0,0,1-2.83-1.21A4.3,4.3,0,0,1,0,8.78,5.11,5.11,0,0,1,1.64,5,5.25,5.25,0,0,1,5.45,3.43,14,14,0,0,1,7,3.54l.78.08a8.23,8.23,0,0,1,3.9-1.22q1.21,0,1.21.7T12.2,4A3.24,3.24,0,0,1,11,4.19,19.29,19.29,0,0,1,8.69,4,15.66,15.66,0,0,0,7.14,5.47,7.06,7.06,0,0,0,6,7.18a3.79,3.79,0,0,0-.43,1.51,1,1,0,0,0,.25.72V9.2a3.9,3.9,0,0,1,.84-2.28A2.87,2.87,0,0,1,9,5.54a.87.87,0,0,1,.7.29,1.21,1.21,0,0,1,.25.81A3.47,3.47,0,0,1,8.92,9a3.06,3.06,0,0,1-2.24,1.15H6.46a1,1,0,0,0,.76.35q1.14,0,2.45-1.67l.1.11a3.41,3.41,0,0,1-2.54,1.73A1.42,1.42,0,0,1,6,10,2.13,2.13,0,0,1,4.91,7.87,4.27,4.27,0,0,1,6.16,5.05a6.22,6.22,0,0,1,1.5-1.28q0-.1-1-.16-.76,0-1.25,0A5,5,0,0,0,1.68,5.2,5,5,0,0,0,.17,8.78a4.13,4.13,0,0,0,1,2.82,3.44,3.44,0,0,0,2.72,1.2A5.9,5.9,0,0,0,6,12.32l2.22-.89A6.55,6.55,0,0,1,10.5,11a5.19,5.19,0,0,1,2.07.41Q13.82,11.89,13.82,12.86ZM9.58,6.56a.71.71,0,0,0-.79-.8A2.46,2.46,0,0,0,6.89,7,3.66,3.66,0,0,0,6,9.13a1.85,1.85,0,0,0,.13.62.89.89,0,0,0,.49.16,2.66,2.66,0,0,0,2-1.27A3.59,3.59,0,0,0,9.58,6.56ZM12.79,3.1q0-.56-1.08-.56A5.3,5.3,0,0,0,8.94,3.84,16.58,16.58,0,0,0,11,4.06Q12.79,4.06,12.79,3.1Z" transform="translate(0.09 -1.49)"/>
	<path class="cls-1" d="M15.89,2.53a4,4,0,0,1-1.51,2.58,8.48,8.48,0,0,1-2,1.49l-.24.53a2.67,2.67,0,0,1,1.55-.9.44.44,0,0,1,.49.5,4.17,4.17,0,0,1-.79,1.58l-.79,1.21c0,.14.06.22.17.22s.66-.32,1.27-1q.2-.22,1.4-1.63l.1.08q-1.24,1.54-1.54,1.85-.9.94-1.44.94a.72.72,0,0,1-.47-.16A.51.51,0,0,1,12,9.43,4.38,4.38,0,0,1,12.73,8a6.93,6.93,0,0,0,.77-1.3c0-.08,0-.12-.1-.12a1.19,1.19,0,0,0-.72.35,2.09,2.09,0,0,0-.55.61l-1,1.81q-.31.59-.48.59l-.24,0-.19,0a.35.35,0,0,0-.19.1,1.42,1.42,0,0,1-.26.22q.8-1.54,1.27-2.4A34.4,34.4,0,0,1,13,4.58q1.67-2.41,2.48-2.41Q15.89,2.17,15.89,2.53Zm-.54.18q0-.3-.12-.3-.31,0-1.08,1.2-.37.58-1.58,2.66a7.74,7.74,0,0,0,2.06-1.94A3,3,0,0,0,15.35,2.71Z" transform="translate(0.09 -1.49)"/>
	<path class="cls-1" d="M20.7,7.21Q18.42,10,17.54,10a1,1,0,0,1-.91-.7,1.44,1.44,0,0,1-1.14.7q-.8,0-.8-1.18a2.48,2.48,0,0,1,.74-1.7,2.54,2.54,0,0,1,1.93-.89.68.68,0,0,1,.61.29q.14-.18.25-.18l.25,0,.25,0s.1-.05.2-.16a.71.71,0,0,1,.2-.17L17.56,9a1.43,1.43,0,0,0-.2.55c0,.16.09.24.26.24s.79-.39,1.57-1.16A19.6,19.6,0,0,0,20.6,7.13Zm-2.9-.48q0-.29-.25-.29-.71,0-1.48,1.24a3.69,3.69,0,0,0-.68,1.75q0,.4.24.4.48,0,.95-.79A13.78,13.78,0,0,0,17.8,6.73Z" transform="translate(0.09 -1.49)"/>
	<path class="cls-1" d="M24.22,7.21A12.8,12.8,0,0,1,22.88,9,2.7,2.7,0,0,1,21,10q-.62,0-.64-.88A3,3,0,0,1,20.85,8a4.46,4.46,0,0,0,.5-1c0-.06,0-.08,0-.08a.68.68,0,0,0-.31.19.7.7,0,0,1-.45.19q-.29,0-.29-.46a1.09,1.09,0,0,1,.21-.59A.58.58,0,0,1,20.94,6c.19,0,.29.09.29.28a1.41,1.41,0,0,1-.42.83l.74-.6a.87.87,0,0,1,.52-.23.38.38,0,0,1,.3.14.49.49,0,0,1,.12.33,1.56,1.56,0,0,1-.25.59L21.29,8.9a1.47,1.47,0,0,0-.23.49q0,.32.31.32.95,0,2.75-2.59ZM21,6.24a.1.1,0,0,0-.11-.11q-.18,0-.34.27a1,1,0,0,0-.16.46q0,.2.13.2A1.88,1.88,0,0,0,21,6.24Z" transform="translate(0.09 -1.49)"/>
	<path class="cls-1" d="M28.66,2.34a4.07,4.07,0,0,1-.84,1.94,7.92,7.92,0,0,1-2.64,2.48L24.6,8a3.55,3.55,0,0,0-.37,1.44q0,.29.25.29.58,0,1.42-1.06a9.48,9.48,0,0,0,1-1.57l.1.08A11.72,11.72,0,0,1,25.88,9a2.49,2.49,0,0,1-1.73,1,.57.57,0,0,1-.52-.26A1.26,1.26,0,0,1,23.45,9a6.26,6.26,0,0,1,1-2.74,21.2,21.2,0,0,1,1.7-2.5q1.45-1.86,2.12-1.86a.34.34,0,0,1,.26.13A.45.45,0,0,1,28.66,2.34Zm-.52.07q0-.25-.17-.25T26.75,3.74a16.82,16.82,0,0,0-1.33,2.63,5.87,5.87,0,0,0,1.92-2.09A4.41,4.41,0,0,0,28.14,2.41Z" transform="translate(0.09 -1.49)"/><path class="cls-1" d="M30.72,7.21a7.79,7.79,0,0,1-1.4,1.62A3.56,3.56,0,0,1,27.18,10a1,1,0,0,1-.75-.31,1.05,1.05,0,0,1-.29-.76,2.48,2.48,0,0,1,1-2,2.76,2.76,0,0,1,1.72-.72.68.68,0,0,1,.48.19.62.62,0,0,1,.2.47q0,.75-1.09,1.26a3.47,3.47,0,0,1-1.39.38,2,2,0,0,0-.22.84q0,.44.32.44a3.47,3.47,0,0,0,2-1.08,7.49,7.49,0,0,0,1.43-1.6ZM29,6.66q0-.28-.25-.28-.58,0-1.51,1.86a1.84,1.84,0,0,0,1.14-.62Q29,7,29,6.66Z" transform="translate(0.09 -1.49)"/>
	<path class="cls-1" d="M33.7,7.21A5.35,5.35,0,0,1,32.26,9a2.77,2.77,0,0,1-1.16.42,1.69,1.69,0,0,1-1.33.65q-.95,0-.95-.85A.73.73,0,0,1,29,8.7a.52.52,0,0,1,.41-.19.73.73,0,0,1,.44.22,2,2,0,0,0,.41.31,1,1,0,0,0,.32-.47A1.63,1.63,0,0,0,30.68,8a2.33,2.33,0,0,0-.11-.55,2.34,2.34,0,0,1-.11-.62,1.94,1.94,0,0,1,.13-.72q.18-.43.5-.43c.2,0,.3.07.3.22A2.39,2.39,0,0,1,31,6.8a3.56,3.56,0,0,1,.36,1.31,2.14,2.14,0,0,1-.22,1.09,2.84,2.84,0,0,0,1.13-.47A6,6,0,0,0,33.6,7.13ZM30.12,9.16a1.88,1.88,0,0,1-.34-.25.71.71,0,0,0-.31-.18q-.22,0-.22.24t.38.34Q30,9.3,30.12,9.16ZM31.25,5.9c0-.09,0-.13-.14-.13s-.1.05-.15.16a.78.78,0,0,0-.08.34.82.82,0,0,0,.07.38A1.35,1.35,0,0,0,31.25,5.9Z" transform="translate(0.09 -1.49)"/>
	<path class="cls-1" d="M51.77,2.27l0,.07A4.88,4.88,0,0,0,49.86,2a3.93,3.93,0,0,0-1.68.41q.36.37.85,1a2,2,0,0,1,.3,1,2,2,0,0,1-1,1.74,3.33,3.33,0,0,1-2,.6,8.5,8.5,0,0,1-.85,0,4.68,4.68,0,0,1-2.22,2.78,5.78,5.78,0,0,1-2.93.78,4,4,0,0,1-2.66-.86,3.16,3.16,0,0,1-1.08-2.53,4.28,4.28,0,0,1,1.27-3.07,4,4,0,0,1,3-1.31,3.36,3.36,0,0,1,1.36.3,3.94,3.94,0,0,1,3-1.13A5.25,5.25,0,0,1,48,2.26a5.79,5.79,0,0,1,1.91-.38A4.58,4.58,0,0,1,51.77,2.27Zm-4.1.11a3.76,3.76,0,0,0-2.38-.66,3.89,3.89,0,0,0-2.88,1.09,4,4,0,0,1,.77.47,3.3,3.3,0,0,1,1,2.65,4.15,4.15,0,0,0,.42-.58l0,.18a5,5,0,0,1-.46.56q-.91,2.82-3.36,2.82a3,3,0,0,1-2.09-.77,2.6,2.6,0,0,1-.86-2,1.91,1.91,0,0,1,.22-.86l.12,0a3.62,3.62,0,0,0-.2.9A2.51,2.51,0,0,0,38.79,8a2.84,2.84,0,0,0,2,.76,3,3,0,0,0,2.53-1.28A3.85,3.85,0,0,0,44,6.18a1.7,1.7,0,0,1-.6.11,1.65,1.65,0,0,1-1.27-.53,1.88,1.88,0,0,1-.49-1.33,2.85,2.85,0,0,1,.61-1.57,3.29,3.29,0,0,0-1.28-.31A4,4,0,0,0,38,3.85a4.19,4.19,0,0,0-1.25,3,3.09,3.09,0,0,0,.9,2.32A3.26,3.26,0,0,0,40,10a4.26,4.26,0,0,0,3.1-1.39,9.88,9.88,0,0,0,1.06-1.91L45,5a9.49,9.49,0,0,1,.84-1.15A7.14,7.14,0,0,1,47.66,2.38ZM44,6a6.55,6.55,0,0,0,0-.83,3.07,3.07,0,0,0-.28-1,2.89,2.89,0,0,0-1.34-1.25,3.07,3.07,0,0,0-.59,1.51,1.79,1.79,0,0,0,.46,1.24,1.5,1.5,0,0,0,1.17.52A1.31,1.31,0,0,0,44,6Zm4.46-2a1.68,1.68,0,0,0-.55-1.44,3.25,3.25,0,0,0-1.46,1.67L45.62,6.4h.46a2.27,2.27,0,0,0,1.68-.73A2.36,2.36,0,0,0,48.47,4Z" transform="translate(0.09 -1.49)"/>
	<path class="cls-1" d="M53.18,7.21a7.79,7.79,0,0,1-1.4,1.62A3.56,3.56,0,0,1,49.64,10a1,1,0,0,1-.75-.31,1.05,1.05,0,0,1-.29-.76,2.48,2.48,0,0,1,1-2,2.76,2.76,0,0,1,1.72-.72.68.68,0,0,1,.48.19.62.62,0,0,1,.2.47q0,.75-1.09,1.26a3.47,3.47,0,0,1-1.39.38,2,2,0,0,0-.22.84q0,.44.32.44a3.47,3.47,0,0,0,2-1.08,7.49,7.49,0,0,0,1.43-1.6Zm-1.76-.55q0-.28-.25-.28-.58,0-1.51,1.86a1.84,1.84,0,0,0,1.14-.62Q51.42,7,51.42,6.66Z" transform="translate(0.09 -1.49)"/>
	<path class="cls-1" d="M56.71,7.21A12.8,12.8,0,0,1,55.38,9a2.7,2.7,0,0,1-1.9,1q-.62,0-.64-.88A3,3,0,0,1,53.35,8a4.46,4.46,0,0,0,.5-1c0-.06,0-.08,0-.08a.68.68,0,0,0-.31.19.7.7,0,0,1-.45.19q-.29,0-.29-.46A1.09,1.09,0,0,1,53,6.27.58.58,0,0,1,53.44,6c.19,0,.29.09.29.28a1.41,1.41,0,0,1-.42.83l.74-.6a.87.87,0,0,1,.52-.23.38.38,0,0,1,.3.14A.49.49,0,0,1,55,6.7a1.56,1.56,0,0,1-.25.59L53.78,8.9a1.47,1.47,0,0,0-.23.49q0,.32.31.32.95,0,2.75-2.59Zm-3.17-1a.1.1,0,0,0-.11-.11q-.18,0-.34.27a1,1,0,0,0-.16.46q0,.2.13.2A1.88,1.88,0,0,0,53.54,6.24Z" transform="translate(0.09 -1.49)"/>
	<path class="cls-1" d="M60.24,7.21A12.8,12.8,0,0,1,58.91,9,2.7,2.7,0,0,1,57,10q-.62,0-.64-.88A3,3,0,0,1,56.87,8a4.46,4.46,0,0,0,.5-1c0-.06,0-.08,0-.08a.68.68,0,0,0-.31.19.7.7,0,0,1-.45.19q-.29,0-.29-.46a1.09,1.09,0,0,1,.21-.59A.58.58,0,0,1,57,6c.19,0,.29.09.29.28a1.41,1.41,0,0,1-.42.83l.74-.6a.87.87,0,0,1,.52-.23.38.38,0,0,1,.3.14.49.49,0,0,1,.12.33,1.56,1.56,0,0,1-.25.59L57.31,8.9a1.47,1.47,0,0,0-.23.49q0,.32.31.32.95,0,2.75-2.59Zm-3.17-1A.1.1,0,0,0,57,6.13q-.18,0-.34.27a1,1,0,0,0-.16.46q0,.2.13.2A1.88,1.88,0,0,0,57.07,6.24Z" transform="translate(0.09 -1.49)"/>
	<path class="cls-1" d="M65.36,7.21Q63.08,10,62.21,10a1,1,0,0,1-.91-.7,1.44,1.44,0,0,1-1.14.7q-.8,0-.8-1.18a2.48,2.48,0,0,1,.74-1.7A2.54,2.54,0,0,1,62,6.23a.68.68,0,0,1,.61.29q.14-.18.25-.18l.25,0,.25,0s.1-.05.2-.16a.71.71,0,0,1,.2-.17L62.22,9a1.43,1.43,0,0,0-.2.55c0,.16.09.24.26.24s.79-.39,1.57-1.16a19.6,19.6,0,0,0,1.42-1.54Zm-2.9-.48q0-.29-.25-.29-.71,0-1.48,1.24A3.69,3.69,0,0,0,60,9.43q0,.4.24.4.48,0,.95-.79A13.78,13.78,0,0,0,62.46,6.73Z" transform="translate(0.09 -1.49)"/>
	<path class="cls-1" d="M70.34,7.21A11.41,11.41,0,0,1,69,8.88,3.1,3.1,0,0,1,67,10q-.61,0-.71-1a6.53,6.53,0,0,1-.73.77,1.18,1.18,0,0,1-.73.23q-.61,0-.61-.59a2.77,2.77,0,0,1,.4-1.27l.89-1.63a.34.34,0,0,1,.32-.17l.17,0,.22,0s.11-.05.22-.16a.77.77,0,0,1,.21-.17L65.24,8.77a1.48,1.48,0,0,0-.2.67q0,.31.3.31t.77-.7a8.78,8.78,0,0,0,.64-.9l.94-1.67A.29.29,0,0,1,68,6.34l.23,0,.2,0s.1-.05.2-.16a.57.57,0,0,1,.23-.17L67.29,9a1.32,1.32,0,0,0-.19.53q0,.24.31.24.53,0,1.56-1.07a12.74,12.74,0,0,0,1.27-1.52Z" transform="translate(0.09 -1.49)"/>
	<path class="cls-1" d="M74.78,2.34a4.07,4.07,0,0,1-.84,1.94A7.92,7.92,0,0,1,71.3,6.77L70.73,8a3.55,3.55,0,0,0-.37,1.44q0,.29.25.29.58,0,1.42-1.06a9.48,9.48,0,0,0,1-1.57l.1.08A11.72,11.72,0,0,1,72,9a2.49,2.49,0,0,1-1.73,1,.57.57,0,0,1-.52-.26A1.26,1.26,0,0,1,69.57,9a6.26,6.26,0,0,1,1-2.74,21.2,21.2,0,0,1,1.7-2.5q1.45-1.86,2.12-1.86a.34.34,0,0,1,.26.13A.45.45,0,0,1,74.78,2.34Zm-.52.07q0-.25-.17-.25T72.88,3.74a16.82,16.82,0,0,0-1.33,2.63,5.87,5.87,0,0,0,1.92-2.09A4.41,4.41,0,0,0,74.27,2.41Z" transform="translate(0.09 -1.49)"/>
	<path class="cls-1" d="M76,7.21q-.18.28-1.13,1.51A2.72,2.72,0,0,1,72.75,10a.56.56,0,0,1-.45-.23.84.84,0,0,1-.19-.55,2,2,0,0,1,.25-.83l.94-1.91h-.88l.19-.19h1a4.56,4.56,0,0,0,1.07-.94,13.17,13.17,0,0,0,.83-1.17h.13L74.4,6.29h.9l-.07.19h-.9L73.08,8.66a1.62,1.62,0,0,0-.26.64.55.55,0,0,0,.1.3c.07.1.14.16.21.16A1.61,1.61,0,0,0,74,9.34a4,4,0,0,0,.72-.71q.34-.42,1.15-1.5Z" transform="translate(0.09 -1.49)"/>
</svg>