<svg xmlns="http://www.w3.org/2000/svg" viewBox="0 0 69.84 27.43">
	<defs>
		<style type="text/css">
			.st0 {
				fill: rgba(0, 0, 0, 0);
				stroke: #e8c36f;
				stroke-width: 0.25;
				stroke-miterlimit: 10;
				stroke-dasharray: 9000;
				stroke-dashoffset: 9000;
				animation: dash 5s ease-in forwards;
			}
	
			@keyframes dash {
				to {
					stroke-dashoffset: 0;
					fill: #e8c36f;
				}
			}
		</style>
	</defs>
	<path class="st0" d="M20.31,7.22A2.83,2.83,0,0,1,19,9.59a4.55,4.55,0,0,1-2.68.85,5.12,5.12,0,0,1-1.69-.29A12.42,12.42,0,0,1,13,9.44a7.84,7.84,0,0,1-.9.47,2.53,2.53,0,0,1-1,.2A2.58,2.58,0,0,1,10,9.9a.91.91,0,0,1-.6-.84.8.8,0,0,1,.43-.67,1.8,1.8,0,0,1,1-.28,4.63,4.63,0,0,1,2,.66q.18-.31.62-1.16A11.08,11.08,0,0,0,14,5.89a3.61,3.61,0,0,1-1.19.29,2.24,2.24,0,0,1-1.78-.8,2.72,2.72,0,0,1-.67-1.86,2.88,2.88,0,0,1,1-2.29A3.56,3.56,0,0,1,13.85.37a2.1,2.1,0,0,1,1,.22l-1-.08a3.42,3.42,0,0,0-2.31.81,2.77,2.77,0,0,0-1,2.2,2.58,2.58,0,0,0,.65,1.76A2.12,2.12,0,0,0,12.87,6a2.41,2.41,0,0,0,1.23-.36,12.12,12.12,0,0,1,.73-2.3,8.61,8.61,0,0,1,.72-1.08,4.13,4.13,0,0,1,.79-.79,1.73,1.73,0,0,1,1-.43q.95,0,.95.84a3.1,3.1,0,0,1-1,2.18,5.74,5.74,0,0,1-2,1.36,7.08,7.08,0,0,1-.55,1.92,10.73,10.73,0,0,1-1.1,1.68,9.21,9.21,0,0,0,3,.56A4.44,4.44,0,0,0,19.2,9a2,2,0,0,0,.92-1.76,1.91,1.91,0,0,0-.92-1.51l.07-.13A1.85,1.85,0,0,1,20.31,7.22ZM12.64,9.17a4.34,4.34,0,0,0-2-.86,1.26,1.26,0,0,0-.66.2.67.67,0,0,0-.36.55.74.74,0,0,0,.38.62,1.57,1.57,0,0,0,.91.26,2.34,2.34,0,0,0,.92-.22A2.83,2.83,0,0,0,12.64,9.17Zm5.5-7.24q0-.72-.79-.72T15.79,2.84a6.68,6.68,0,0,0-.5,2.41,5,5,0,0,0,1.85-1.34A3.1,3.1,0,0,0,18.14,1.93Z" transform="translate(0 -0.37)"/>
	<path class="st0" d="M25.09,7.21a7.79,7.79,0,0,1-1.4,1.62A3.56,3.56,0,0,1,21.55,10a1,1,0,0,1-.75-.31,1.05,1.05,0,0,1-.29-.76,2.48,2.48,0,0,1,1-2,2.76,2.76,0,0,1,1.72-.72.68.68,0,0,1,.48.19.62.62,0,0,1,.2.47q0,.75-1.09,1.26a3.47,3.47,0,0,1-1.39.38,2,2,0,0,0-.22.84q0,.44.32.44a3.47,3.47,0,0,0,2-1.08A7.49,7.49,0,0,0,25,7.13Zm-1.76-.55q0-.28-.25-.28-.58,0-1.51,1.86a1.84,1.84,0,0,0,1.14-.62Q23.32,7,23.32,6.66Z" transform="translate(0 -0.37)"/>
	<path class="st0" d="M28.06,7.21A5.35,5.35,0,0,1,26.62,9a2.77,2.77,0,0,1-1.16.42,1.69,1.69,0,0,1-1.33.65q-.95,0-.95-.85a.73.73,0,0,1,.16-.48.52.52,0,0,1,.41-.19.73.73,0,0,1,.44.22,2,2,0,0,0,.41.31,1,1,0,0,0,.32-.47A1.63,1.63,0,0,0,25.05,8a2.33,2.33,0,0,0-.11-.55,2.34,2.34,0,0,1-.11-.62A1.94,1.94,0,0,1,25,6.1q.18-.43.5-.43c.2,0,.3.07.3.22a2.39,2.39,0,0,1-.37.92,3.56,3.56,0,0,1,.36,1.31,2.14,2.14,0,0,1-.22,1.09,2.84,2.84,0,0,0,1.13-.47A6,6,0,0,0,28,7.13ZM24.49,9.16a1.88,1.88,0,0,1-.34-.25.71.71,0,0,0-.31-.18q-.22,0-.22.24T24,9.3Q24.4,9.3,24.49,9.16ZM25.61,5.9c0-.09,0-.13-.14-.13s-.1.05-.15.16a.78.78,0,0,0-.08.34.82.82,0,0,0,.07.38A1.35,1.35,0,0,0,25.61,5.9Z" transform="translate(0 -0.37)"/>
	<path class="st0" d="M44.85,12.86a1.21,1.21,0,0,1-.25.65l-.06-.07a1.28,1.28,0,0,0,.18-.58q0-.85-1.22-1.37a5,5,0,0,0-2-.41,6.32,6.32,0,0,0-2.3.48l-2.16.89a5.83,5.83,0,0,1-2.16.48,3.61,3.61,0,0,1-2.83-1.21,4.3,4.3,0,0,1-1-2.94A5.11,5.11,0,0,1,32.66,5a5.25,5.25,0,0,1,3.81-1.57,14,14,0,0,1,1.58.11l.78.08a8.23,8.23,0,0,1,3.9-1.22q1.21,0,1.21.7T43.23,4A3.24,3.24,0,0,1,42,4.19,19.29,19.29,0,0,1,39.71,4a15.66,15.66,0,0,0-1.55,1.51A7.06,7.06,0,0,0,37,7.18a3.79,3.79,0,0,0-.43,1.51,1,1,0,0,0,.25.72V9.2a3.9,3.9,0,0,1,.84-2.28,2.87,2.87,0,0,1,2.35-1.38.87.87,0,0,1,.7.29,1.21,1.21,0,0,1,.25.81A3.47,3.47,0,0,1,39.95,9a3.06,3.06,0,0,1-2.24,1.15h-.23a1,1,0,0,0,.76.35q1.14,0,2.45-1.67l.1.11a3.41,3.41,0,0,1-2.54,1.73A1.42,1.42,0,0,1,37.07,10a2.13,2.13,0,0,1-1.14-2.11,4.27,4.27,0,0,1,1.25-2.82,6.22,6.22,0,0,1,1.5-1.28q0-.1-1-.16-.76,0-1.25,0A5,5,0,0,0,32.71,5.2a5,5,0,0,0-1.51,3.59,4.13,4.13,0,0,0,1,2.82,3.44,3.44,0,0,0,2.72,1.2A5.9,5.9,0,0,0,37,12.32l2.22-.89A6.55,6.55,0,0,1,41.53,11a5.19,5.19,0,0,1,2.07.41Q44.85,11.89,44.85,12.86ZM40.6,6.56a.71.71,0,0,0-.79-.8A2.46,2.46,0,0,0,37.91,7a3.66,3.66,0,0,0-.84,2.16,1.85,1.85,0,0,0,.13.62.89.89,0,0,0,.49.16,2.66,2.66,0,0,0,2-1.27A3.59,3.59,0,0,0,40.6,6.56ZM43.82,3.1q0-.56-1.08-.56A5.3,5.3,0,0,0,40,3.84,16.58,16.58,0,0,0,42,4.06Q43.82,4.06,43.82,3.1Z" transform="translate(0 -0.37)"/>
	<path class="st0" d="M46.94,7.21a5.23,5.23,0,0,1-1.48,1.1l-.54.18a3.34,3.34,0,0,1-1,1,2.48,2.48,0,0,1-1.36.46.8.8,0,0,1-.67-.36,1.22,1.22,0,0,1-.24-.74A2.51,2.51,0,0,1,42.48,7a2.63,2.63,0,0,1,1.87-.82.87.87,0,0,1,.7.32,1.2,1.2,0,0,1,.28.8,1.44,1.44,0,0,1-.11.55L45,8.32a1.57,1.57,0,0,0,.36-.13,5.77,5.77,0,0,0,1.45-1.06ZM44.6,6.66q0-.3-.29-.3-.56,0-1.3,1.26a4.06,4.06,0,0,0-.7,1.82q0,.4.23.4.62,0,1.49-1.44-.66-.22-.66-.59a.33.33,0,0,1,.37-.38.22.22,0,0,1,.25.25c0,.14-.11.22-.32.24a.5.5,0,0,0,.46.36A4.1,4.1,0,0,0,44.6,6.66Z" transform="translate(0 -0.37)"/>
	<path class="st0" d="M51.56,7.21,49.71,9.29A1.76,1.76,0,0,1,48.5,10q-.66,0-.7-.72a1.3,1.3,0,0,1,.25-.73L49,7a.82.82,0,0,0,.17-.36c0-.07-.06-.11-.18-.11q-.46,0-1.2.84a8.08,8.08,0,0,0-.89,1.24l-.46.84q-.22.41-.4.41l-.23,0-.21,0q-.1,0-.44.35L47,6.62q.16-.29.36-.29a.83.83,0,0,1,.23,0l.19,0a.88.88,0,0,0,.2-.16,1.42,1.42,0,0,1,.25-.19l-.61,1.15a3.28,3.28,0,0,1,1.8-1,.49.49,0,0,1,.55.55,1.25,1.25,0,0,1-.23.65L48.67,9.17a1.39,1.39,0,0,0-.22.41q0,.22.25.22t1-.72l1.76-1.94Z" transform="translate(0 -0.37)"/>
	<path class="st0" d="M54.39,7.21q-.18.28-1.13,1.51A2.72,2.72,0,0,1,51.16,10a.56.56,0,0,1-.45-.23.84.84,0,0,1-.19-.55,2,2,0,0,1,.25-.83l.94-1.91h-.88L51,6.29h1a4.56,4.56,0,0,0,1.07-.94,13.09,13.09,0,0,0,.83-1.17H54L52.81,6.29h.9l-.07.19h-.9L51.49,8.66a1.62,1.62,0,0,0-.26.64.55.55,0,0,0,.1.3c.07.1.14.16.21.16a1.61,1.61,0,0,0,.89-.42,4,4,0,0,0,.72-.71q.34-.42,1.15-1.5Z" transform="translate(0 -0.37)"/>
	<path class="st0" d="M58.09,7.21a7.79,7.79,0,0,1-1.4,1.62A3.56,3.56,0,0,1,54.55,10a1,1,0,0,1-.75-.31,1.05,1.05,0,0,1-.29-.76,2.48,2.48,0,0,1,1-2,2.76,2.76,0,0,1,1.72-.72.68.68,0,0,1,.48.19.62.62,0,0,1,.2.47q0,.75-1.09,1.26a3.47,3.47,0,0,1-1.39.38,2,2,0,0,0-.22.84q0,.44.32.44a3.47,3.47,0,0,0,2-1.08A7.49,7.49,0,0,0,58,7.13Zm-1.76-.55q0-.28-.25-.28-.58,0-1.51,1.86a1.84,1.84,0,0,0,1.14-.62Q56.32,7,56.32,6.66Z" transform="translate(0 -0.37)"/>
	<path class="st0" d="M61.06,7.21A5.35,5.35,0,0,1,59.62,9a2.77,2.77,0,0,1-1.16.42,1.69,1.69,0,0,1-1.33.65q-.95,0-.95-.85a.73.73,0,0,1,.16-.48.52.52,0,0,1,.41-.19.73.73,0,0,1,.44.22A2,2,0,0,0,57.6,9a1,1,0,0,0,.32-.47A1.63,1.63,0,0,0,58,8a2.33,2.33,0,0,0-.11-.55,2.34,2.34,0,0,1-.11-.62A1.94,1.94,0,0,1,58,6.1q.18-.43.5-.43c.2,0,.3.07.3.22a2.39,2.39,0,0,1-.37.92,3.56,3.56,0,0,1,.36,1.31,2.14,2.14,0,0,1-.22,1.09,2.84,2.84,0,0,0,1.13-.47A6,6,0,0,0,61,7.13ZM57.48,9.16a1.88,1.88,0,0,1-.34-.25.71.71,0,0,0-.31-.18q-.22,0-.22.24T57,9.3Q57.4,9.3,57.48,9.16ZM58.61,5.9c0-.09,0-.13-.14-.13s-.1.05-.15.16a.78.78,0,0,0-.08.34.82.82,0,0,0,.07.38A1.35,1.35,0,0,0,58.61,5.9Z" transform="translate(0 -0.37)"/>
	<path class="st0" d="M7.64,17.1a4,4,0,0,1-1.36,2.3,7.9,7.9,0,0,1-2.21,1.76,16.88,16.88,0,0,0-1.36,2.77q0,.3.25.3t1.13-.73q.54-.52,1.86-2l.1.08q-1.44,1.62-1.94,2.1a2.1,2.1,0,0,1-1.19.72.88.88,0,0,1-.59-.17A1.52,1.52,0,0,1,2,23.62a4.6,4.6,0,0,1-.55.61.85.85,0,0,1-.54.17.76.76,0,0,1-.62-.33A1.2,1.2,0,0,1,0,23.3a2.53,2.53,0,0,1,.85-1.92,2.82,2.82,0,0,1,2-.76.91.91,0,0,1,.61.32,22.17,22.17,0,0,1,1.67-2.5q1.38-1.78,2.2-1.78Q7.64,16.68,7.64,17.1Zm-4.46,4a.29.29,0,0,0-.12-.22.37.37,0,0,0-.24-.1q-.54,0-1.37,1.25a3.87,3.87,0,0,0-.79,1.8q0,.41.26.41a.8.8,0,0,0,.62-.38l.64-.9A4.89,4.89,0,0,0,3.18,21.11Zm4-3.92c0-.18-.07-.26-.22-.26q-.44,0-2.64,3.86a7.09,7.09,0,0,0,2.08-1.91A3.3,3.3,0,0,0,7.14,17.18Z" transform="translate(0 -0.37)"/>
	<path class="st0" d="M9.76,21.61a7.79,7.79,0,0,1-1.4,1.62A3.56,3.56,0,0,1,6.22,24.4a1,1,0,0,1-.75-.31,1.05,1.05,0,0,1-.29-.76,2.48,2.48,0,0,1,1-2,2.76,2.76,0,0,1,1.72-.72.68.68,0,0,1,.48.19.62.62,0,0,1,.2.47q0,.75-1.09,1.26a3.47,3.47,0,0,1-1.39.38,2,2,0,0,0-.22.84q0,.44.32.44a3.47,3.47,0,0,0,2-1.08,7.49,7.49,0,0,0,1.43-1.6ZM8,21.06q0-.28-.25-.28-.58,0-1.51,1.86A1.84,1.84,0,0,0,7.37,22Q8,21.43,8,21.06Z" transform="translate(0 -0.37)"/>
	<path class="st0" d="M19.39,21.61l-1.46,1.63q-.61.67-.79.83a1.23,1.23,0,0,1-.77.32.69.69,0,0,1-.51-.21.72.72,0,0,1-.21-.53,4.68,4.68,0,0,1,.72-1.28,5.47,5.47,0,0,0,.72-1.24q0-.2-.22-.2t-1.4,1.33q-.3.58-1,1.86a.34.34,0,0,1-.32.17l-.21,0-.19,0q-.08,0-.43.35,1.79-3.3,1.79-3.44c0-.11,0-.17-.13-.17s-.66.37-1.37,1.1a6.53,6.53,0,0,0-.86,1.39q-.44.86-.59.86a1.34,1.34,0,0,1-.3,0l-.2,0q-.08,0-.43.35l1.67-3.14a4.11,4.11,0,0,1,.29-.5.26.26,0,0,1,.24-.16l.28,0,.19,0s.1,0,.2-.15a.8.8,0,0,1,.23-.17l-.61,1.15a2.71,2.71,0,0,1,1.7-1q.54,0,.54.83a7.12,7.12,0,0,1,.76-.65,1.2,1.2,0,0,1,.67-.18.51.51,0,0,1,.38.18.58.58,0,0,1,.17.41,1.33,1.33,0,0,1-.2.42l-1.16,1.88a1,1,0,0,0-.18.4q0,.29.24.29t1.24-1.06l1.45-1.62Z" transform="translate(0 -0.37)"/>
	<path class="st0" d="M24.52,21.61q-2.28,2.78-3.16,2.78a1,1,0,0,1-.91-.7,1.44,1.44,0,0,1-1.14.7q-.8,0-.8-1.18a2.48,2.48,0,0,1,.74-1.7,2.54,2.54,0,0,1,1.93-.89.68.68,0,0,1,.61.29q.14-.18.25-.18l.25,0,.25,0s.1-.05.2-.16a.71.71,0,0,1,.2-.17l-1.57,3a1.43,1.43,0,0,0-.2.55c0,.16.09.24.26.24s.79-.39,1.57-1.16a19.6,19.6,0,0,0,1.42-1.54Zm-2.9-.48q0-.29-.25-.29-.71,0-1.48,1.24a3.69,3.69,0,0,0-.68,1.75q0,.4.24.4.48,0,.95-.79A13.78,13.78,0,0,0,21.61,21.13Z" transform="translate(0 -0.37)"/>
	<path class="st0" d="M34.14,21.61l-1.46,1.63q-.61.67-.79.83a1.23,1.23,0,0,1-.77.32.69.69,0,0,1-.51-.21.72.72,0,0,1-.21-.53,4.68,4.68,0,0,1,.72-1.28,5.47,5.47,0,0,0,.72-1.24q0-.2-.22-.2t-1.4,1.33q-.3.58-1,1.86a.34.34,0,0,1-.32.17l-.21,0-.19,0q-.08,0-.43.35,1.79-3.3,1.79-3.44c0-.11,0-.17-.13-.17s-.66.37-1.37,1.1a6.53,6.53,0,0,0-.86,1.39q-.44.86-.59.86a1.34,1.34,0,0,1-.3,0l-.2,0q-.08,0-.43.35l1.67-3.14a4.11,4.11,0,0,1,.29-.5.26.26,0,0,1,.24-.16l.28,0,.19,0s.1,0,.2-.15a.8.8,0,0,1,.23-.17l-.61,1.15a2.71,2.71,0,0,1,1.7-1q.54,0,.54.83a7.12,7.12,0,0,1,.76-.65,1.2,1.2,0,0,1,.67-.18.51.51,0,0,1,.38.18.58.58,0,0,1,.17.41,1.33,1.33,0,0,1-.2.42L31.3,23.52a1,1,0,0,0-.18.4q0,.29.24.29t1.24-1.06L34,21.53Z" transform="translate(0 -0.37)"/>
	<path class="st0" d="M37.84,21.61a7.79,7.79,0,0,1-1.4,1.62A3.56,3.56,0,0,1,34.3,24.4a1,1,0,0,1-.75-.31,1.05,1.05,0,0,1-.29-.76,2.48,2.48,0,0,1,1-2A2.76,2.76,0,0,1,36,20.63a.68.68,0,0,1,.48.19.62.62,0,0,1,.2.47q0,.75-1.09,1.26a3.47,3.47,0,0,1-1.39.38,2,2,0,0,0-.22.84q0,.44.32.44a3.47,3.47,0,0,0,2-1.08,7.49,7.49,0,0,0,1.43-1.6Zm-1.76-.55q0-.28-.25-.28-.58,0-1.51,1.86A1.84,1.84,0,0,0,35.45,22Q36.07,21.43,36.07,21.06Zm.47-1.21h-.31l-1.2-.9a.68.68,0,0,1-.25-.48.5.5,0,0,1,.14-.35.48.48,0,0,1,.37-.16.61.61,0,0,1,.48.28Z" transform="translate(0 -0.37)"/>
	<path class="st0" d="M41.36,21.61A12.8,12.8,0,0,1,40,23.39a2.7,2.7,0,0,1-1.9,1q-.62,0-.64-.88a3,3,0,0,1,.5-1.13,4.46,4.46,0,0,0,.5-1c0-.06,0-.08,0-.08a.68.68,0,0,0-.31.19.7.7,0,0,1-.45.19q-.29,0-.29-.46a1.09,1.09,0,0,1,.21-.59.58.58,0,0,1,.47-.32c.19,0,.29.09.29.28a1.41,1.41,0,0,1-.42.83l.74-.6a.87.87,0,0,1,.52-.23.38.38,0,0,1,.3.14.49.49,0,0,1,.12.33,1.56,1.56,0,0,1-.25.59l-.95,1.62a1.47,1.47,0,0,0-.23.49q0,.32.31.32.95,0,2.75-2.59Zm-3.17-1a.1.1,0,0,0-.11-.11q-.18,0-.34.27a1,1,0,0,0-.16.46q0,.2.13.2A1.88,1.88,0,0,0,38.2,20.64Z" transform="translate(0 -0.37)"/>
	<path class="st0" d="M45.06,21.61a7.79,7.79,0,0,1-1.4,1.62,3.56,3.56,0,0,1-2.14,1.16,1,1,0,0,1-.75-.31,1.05,1.05,0,0,1-.29-.76,2.48,2.48,0,0,1,1-2,2.76,2.76,0,0,1,1.72-.72.68.68,0,0,1,.48.19.62.62,0,0,1,.2.47q0,.75-1.09,1.26a3.47,3.47,0,0,1-1.39.38,2,2,0,0,0-.22.84q0,.44.32.44a3.47,3.47,0,0,0,2-1.08A7.49,7.49,0,0,0,45,21.53Zm-1.76-.55q0-.28-.25-.28-.58,0-1.51,1.86A1.84,1.84,0,0,0,42.67,22Q43.3,21.43,43.3,21.06Z" transform="translate(0 -0.37)"/>
	<path class="st0" d="M52.74,16.74a4.07,4.07,0,0,1-.84,1.94,7.92,7.92,0,0,1-2.64,2.48l-.58,1.26a3.55,3.55,0,0,0-.37,1.44q0,.29.25.29.58,0,1.42-1.06a9.48,9.48,0,0,0,1-1.57l.1.08A11.72,11.72,0,0,1,50,23.36a2.49,2.49,0,0,1-1.73,1,.57.57,0,0,1-.52-.26,1.26,1.26,0,0,1-.19-.73,6.26,6.26,0,0,1,1-2.74,21.2,21.2,0,0,1,1.7-2.5q1.45-1.86,2.12-1.86a.34.34,0,0,1,.26.13A.45.45,0,0,1,52.74,16.74Zm-.52.07q0-.25-.17-.25t-1.22,1.58a16.82,16.82,0,0,0-1.33,2.63,5.87,5.87,0,0,0,1.92-2.09A4.41,4.41,0,0,0,52.22,16.81Z" transform="translate(0 -0.37)"/>
	<path class="st0" d="M55.71,16.74a2,2,0,0,1-.61,1.32.84.84,0,0,1-.55.35c-.07,0-.11,0-.11-.08s0-.07.08-.1l.16-.08q.37-.26.37-.48a.15.15,0,0,0-.08-.16q-.47-.23-.47-.59a.73.73,0,0,1,.2-.51.62.62,0,0,1,.47-.22.52.52,0,0,1,.38.16A.53.53,0,0,1,55.71,16.74Z" transform="translate(0 -0.37)"/>
	<path class="st0" d="M60.92,18.52a5.2,5.2,0,0,1-.32,1.54A8.15,8.15,0,0,1,60,21.52a7,7,0,0,1-1.88,2.17A3.6,3.6,0,0,1,56,24.5a1.71,1.71,0,0,1-1.4-.66,2.34,2.34,0,0,1-.49-1.51,5.12,5.12,0,0,1,.79-2.53,8.84,8.84,0,0,1,1.68-2.09,4,4,0,0,1,2.06-1.14h.5a6.56,6.56,0,0,0-1.24.75A5.51,5.51,0,0,0,57,18.38a8.75,8.75,0,0,0-2,4.86,1.26,1.26,0,0,0,.29.86.92.92,0,0,0,.72.33,2.26,2.26,0,0,0,1.47-.73A8.28,8.28,0,0,0,59,21.65a8.52,8.52,0,0,0,1.3-3.78q0-1-.67-1a2.34,2.34,0,0,0-1.8,1.21,3.7,3.7,0,0,0-.8,2.11,1,1,0,0,0,.21.66.69.69,0,0,0,.55.24,1.68,1.68,0,0,0,1.37-.89,2.49,2.49,0,0,0,.52-1.36.89.89,0,0,0-.14-.5.38.38,0,0,0-.31-.21,1,1,0,0,0-.7.43l-.08-.08a1.28,1.28,0,0,1,.78-.47.49.49,0,0,1,.41.25,1,1,0,0,1,.17.58,2.53,2.53,0,0,1-.59,1.57,1.82,1.82,0,0,1-1.43.8A.81.81,0,0,1,57.1,21a1.1,1.1,0,0,1-.25-.75,3.81,3.81,0,0,1,.84-2.2,2.45,2.45,0,0,1,1.9-1.24,1.15,1.15,0,0,1,1,.59A2,2,0,0,1,60.92,18.52Z" transform="translate(0 -0.37)"/>
	<path class="st0" d="M66.14,21.61q-.48.48-1.58,1.51l-.88.83a6.08,6.08,0,0,1-1.08.73L61.93,26a5.46,5.46,0,0,1-.85,1.25,1.67,1.67,0,0,1-1.21.56,1,1,0,0,1-.69-.26.87.87,0,0,1-.28-.66,1.56,1.56,0,0,1,.92-1.27,9.52,9.52,0,0,1,1.93-.79l.5-1a2.36,2.36,0,0,1-1.18.59q-.64,0-.64-.8a1.59,1.59,0,0,1,.2-.74l1-1.82q.16-.29.34-.29a1,1,0,0,1,.26,0l.2,0s.1-.06.21-.17a.67.67,0,0,1,.22-.18l-1.46,2.74a1.34,1.34,0,0,0-.19.59c0,.22.06.34.17.34a1.3,1.3,0,0,0,.54-.22,1.73,1.73,0,0,0,.68-.65L63.85,21q.16-.29.34-.29a.78.78,0,0,1,.24,0l.19,0s.1-.06.22-.17a.7.7,0,0,1,.23-.18L64.27,22a21.84,21.84,0,0,1-1.56,2.5,5.08,5.08,0,0,0,.92-.7l.83-.79L66,21.53Zm-4.43,3.32a13.39,13.39,0,0,0-1.85.77q-.88.52-.88,1.16a.45.45,0,0,0,.5.5q.56,0,1.3-1C61,26.16,61.27,25.68,61.71,24.94Z" transform="translate(0 -0.37)"/>
	<path class="st0" d="M69.84,21.61a7.79,7.79,0,0,1-1.4,1.62A3.56,3.56,0,0,1,66.3,24.4a1,1,0,0,1-.75-.31,1.05,1.05,0,0,1-.29-.76,2.48,2.48,0,0,1,1-2A2.76,2.76,0,0,1,68,20.63a.68.68,0,0,1,.48.19.62.62,0,0,1,.2.47q0,.75-1.09,1.26a3.47,3.47,0,0,1-1.39.38,2,2,0,0,0-.22.84q0,.44.32.44a3.47,3.47,0,0,0,2-1.08,7.49,7.49,0,0,0,1.43-1.6Zm-1.76-.55q0-.28-.25-.28-.58,0-1.51,1.86A1.84,1.84,0,0,0,67.45,22Q68.07,21.43,68.07,21.06Z" transform="translate(0 -0.37)"/>
</svg>